{
    "accessors" : [
        {
            "bufferView" : 0,
            "componentType" : 5123,
            "count" : 372,
            "max" : [
                191
            ],
            "min" : [
                0
            ],
            "type" : "SCALAR"
        },
        {
            "bufferView" : 1,
            "componentType" : 5126,
            "count" : 192,
            "max" : [
                0.2255757749080658,
                0.3761483430862427,
                -0.27104833722114563
            ],
            "min" : [
                -0.22557581961154938,
                -6.874177932739258,
                -0.7221997976303101
            ],
            "type" : "VEC3"
        },
        {
            "bufferView" : 2,
            "componentType" : 5126,
            "count" : 192,
            "max" : [
                0.9951846599578857,
                0.9999999403953552,
                0.9951847791671753
            ],
            "min" : [
                -0.9951847791671753,
                -1.0,
                -0.9951848387718201
            ],
            "type" : "VEC3"
        },
        {
            "bufferView" : 3,
            "componentType" : 5123,
            "count" : 765,
            "max" : [
                518
            ],
            "min" : [
                0
            ],
            "type" : "SCALAR"
        },
        {
            "bufferView" : 4,
            "componentType" : 5126,
            "count" : 519,
            "max" : [
                0.3104643225669861,
                0.320905476808548,
                1.5862141847610474
            ],
            "min" : [
                -0.3082907199859619,
                -0.9426743984222412,
                -0.8652745485305786
            ],
            "type" : "VEC3"
        },
        {
            "bufferView" : 5,
            "componentType" : 5126,
            "count" : 519,
            "max" : [
                0.9992461204528809,
                0.9999992251396179,
                0.9907293915748596
            ],
            "min" : [
                -0.9997021555900574,
                -0.99996018409729,
                -0.999144971370697
            ],
            "type" : "VEC3"
        },
        {
            "bufferView" : 6,
            "componentType" : 5126,
            "count" : 250,
            "max" : [
                10.375
            ],
            "min" : [
                0.0
            ],
            "type" : "SCALAR"
        },
        {
            "bufferView" : 7,
            "componentType" : 5126,
            "count" : 250,
            "max" : [
                0.7071048617362976,
                0.7071048021316528,
                0.7071045637130737,
                0.7071045637130737
            ],
            "min" : [
                -0.7069640755653381,
                -0.7069640159606934,
                -0.0016642847331240773,
                -0.001664284965954721
            ],
            "type" : "VEC4"
        }
    ],
    "animations" : [
        {
            "channels" : [
                {
                    "sampler" : 0,
                    "target" : {
                        "node" : 0,
                        "path" : "rotation"
                    }
                }
            ],
            "name" : "CubeAction",
            "samplers" : [
                {
                    "input" : 6,
                    "interpolation" : "LINEAR",
                    "output" : 7
                }
            ]
        }
    ],
    "asset" : {
        "generator" : "Khronos Blender glTF 2.0 exporter",
        "version" : "2.0"
    },
    "bufferViews" : [
        {
            "buffer" : 0,
            "byteLength" : 744,
            "byteOffset" : 0,
            "target" : 34963
        },
        {
            "buffer" : 0,
            "byteLength" : 2304,
            "byteOffset" : 744,
            "target" : 34962
        },
        {
            "buffer" : 0,
            "byteLength" : 2304,
            "byteOffset" : 3048,
            "target" : 34962
        },
        {
            "buffer" : 0,
            "byteLength" : 1530,
            "byteOffset" : 5352,
            "target" : 34963
        },
        {
            "buffer" : 0,
            "byteLength" : 6228,
            "byteOffset" : 6884,
            "target" : 34962
        },
        {
            "buffer" : 0,
            "byteLength" : 6228,
            "byteOffset" : 13112,
            "target" : 34962
        },
        {
            "buffer" : 0,
            "byteLength" : 1000,
            "byteOffset" : 19340
        },
        {
            "buffer" : 0,
            "byteLength" : 4000,
            "byteOffset" : 20340
        }
    ],
    "buffers" : [
        {
            "byteLength" : 24340,
            "uri" : "axe.bin"
        }
    ],
    "meshes" : [
        {
            "name" : "Cube.001",
            "primitives" : [
                {
                    "attributes" : {
                        "NORMAL" : 2,
                        "POSITION" : 1
                    },
                    "indices" : 0
                },
                {
                    "attributes" : {
                        "NORMAL" : 5,
                        "POSITION" : 4
                    },
                    "indices" : 3
                }
            ]
        }
    ],
    "nodes" : [
        {
            "mesh" : 0,
            "name" : "Cube",
            "rotation" : [
                0.49999985098838806,
                0.4999997913837433,
                0.5000002384185791,
                0.5000002980232239
            ],
            "scale" : [
                0.5,
                0.5,
                0.5
            ],
            "translation" : [
                0.01901346445083618,
                -0.029492616653442383,
                -0.010916469618678093
            ]
        },
        {
            "name" : "Sun",
            "translation" : [
                -0.2706725001335144,
                2.3388781547546387,
                -1.6593583822250366
            ]
        }
    ],
    "scene" : 0,
    "scenes" : [
        {
            "name" : "Scene",
            "nodes" : [
                1,
                0
            ]
        }
    ]
}
