{"accessors":[{"name":"MeshBody1_1_positions","componentType":5126,"count":16196,"min":[-15.899999618530273,-7.900000095367432,0],"max":[15.899999618530273,7.900000095367432,11.399999618530273],"type":"VEC3","bufferView":0,"byteOffset":0},{"name":"MeshBody1_1_0_indices","componentType":5123,"count":97164,"min":[0],"max":[16195],"type":"SCALAR","bufferView":1,"byteOffset":0}],"asset":{"generator":"obj2gltf","version":"2.0"},"buffers":[{"name":"input","byteLength":388680,"uri":"data:application/octet-stream;base64,"}],"bufferViews":[{"name":"bufferView_0","buffer":0,"byteLength":194352,"byteOffset":0,"byteStride":12,"target":34962},{"name":"bufferView_1","buffer":0,"byteLength":194328,"byteOffset":194352,"target":34963}],"materials":[{"name":"Paint_-_Metallic_(Red)","pbrMetallicRoughness":{"baseColorFactor":[0.5,0.5,0.5,1],"metallicFactor":0,"roughnessFactor":1},"emissiveFactor":[0,0,0],"alphaMode":"OPAQUE","doubleSided":false}],"meshes":[{"name":"MeshBody1_1","primitives":[{"attributes":{"POSITION":0},"indices":1,"material":0,"mode":4}]}],"nodes":[{"name":"MeshBody1","mesh":0}],"scene":0,"scenes":[{"nodes":[0]}]}
